<svg xmlns="http://www.w3.org/2000/svg" width="1000" height="390" viewBox="0 0 1000 390" role="img" aria-labelledby="title desc">
<title id="title">philosophers · 상태와 Monitor</title>
<desc id="desc">각 Philosopher의 hunger_time과 eat_cnt는 철학자별 상태로 관리된다. full_cnt와 is_surv는 공통 상태다. 생존 Monitor는 hunger_time을 검사해 사망을 판단하고, 최소 식사 횟수를 지정한 경우 식사 횟수 Monitor가 full_cnt를 확인한다.</desc>
<defs><marker id="arrow" markerWidth="8" markerHeight="8" refX="7" refY="4" orient="auto"><path d="M0 0 L8 4 L0 8Z" fill="#64748b"/></marker></defs>
<rect width="1000" height="390" rx="16" fill="#f8fafc"/>
<g font-family="Arial,'Noto Sans CJK KR','Malgun Gothic',sans-serif">
<text x="32" y="44" font-size="27" font-weight="700" fill="#17253b">philosophers · 상태와 Monitor</text>
<text x="32" y="74" font-size="16" fill="#4b5e78">Per-Philosopher State · Shared State · 종료 조건</text>

<rect x="32" y="108" width="936" height="220" rx="12" fill="#ecf8f4" stroke="#a9d5c6"/>

<rect x="80" y="145" width="230" height="78" rx="10" fill="#fff" stroke="#cbd5e1"/>
<text x="102" y="176" font-size="18" font-weight="700" fill="#086b62">철학자별 상태</text>
<text x="102" y="204" font-size="14" fill="#263a54">hunger_time · eat_cnt</text>

<rect x="80" y="245" width="230" height="78" rx="10" fill="#fff" stroke="#cbd5e1"/>
<text x="102" y="276" font-size="18" font-weight="700" fill="#086b62">공통 상태</text>
<text x="102" y="304" font-size="14" fill="#263a54">full_cnt · is_surv</text>

<rect x="455" y="145" width="230" height="78" rx="10" fill="#fff" stroke="#cbd5e1"/>
<text x="477" y="176" font-size="18" font-weight="700" fill="#086b62">생존 Monitor</text>
<text x="477" y="204" font-size="14" fill="#263a54">마지막 식사 시각 검사</text>

<rect x="455" y="245" width="230" height="78" rx="10" fill="#fff" stroke="#cbd5e1"/>
<text x="477" y="276" font-size="18" font-weight="700" fill="#086b62">식사 횟수 Monitor</text>
<text x="477" y="304" font-size="14" fill="#263a54">full_cnt 확인</text>

<rect x="790" y="175" width="130" height="100" rx="10" fill="#fff6ea" stroke="#e5cba9"/>
<text x="812" y="207" font-size="17" font-weight="700" fill="#946018">종료 상태</text>
<text x="812" y="235" font-size="14" fill="#263a54">사망 또는</text>
<text x="812" y="257" font-size="14" fill="#263a54">목표 식사 완료</text>

<path d="M310 184 H445" fill="none" stroke="#64748b" stroke-width="2" marker-end="url(#arrow)"/>
<path d="M310 284 H445" fill="none" stroke="#64748b" stroke-width="2" marker-end="url(#arrow)"/>
<path d="M685 184 H750 V225 H780" fill="none" stroke="#64748b" stroke-width="2" marker-end="url(#arrow)"/>
<path d="M685 284 H750 V245 H780" fill="none" stroke="#64748b" stroke-width="2" marker-end="url(#arrow)"/>

<text x="80" y="358" font-size="14" fill="#475569">stdout Mutex는 Philosopher와 Monitor의 상태 출력 구간을 직렬화</text>
</g></svg>